<?xml version="1.0" encoding="utf-8"?>
<!-- Generator: Adobe Illustrator 21.0.1, SVG Export Plug-In . SVG Version: 6.00 Build 0)  -->
<svg version="1.1" id="Layer_1" xmlns="http://www.w3.org/2000/svg" xmlns:xlink="http://www.w3.org/1999/xlink" x="0px" y="0px"
	 viewBox="0 0 100 100" style="enable-background:new 0 0 100 100;" xml:space="preserve">
<style type="text/css">
	.st0{fill:#005AA9;}
</style>
<path class="st0" d="M86.2,15.7c-1-1-2.5-1-3.5,0L60.6,37.8V22.5c0-1.4-1.1-2.5-2.5-2.5s-2.5,1.1-2.5,2.5v21.3
	c0,0.3,0.1,0.6,0.2,0.9l0,0c0.3,0.6,0.7,1.1,1.3,1.3l0,0c0.3,0.1,0.6,0.2,0.9,0.2h21.3c1.4,0,2.5-1.1,2.5-2.5s-1.1-2.5-2.5-2.5H64.1
	l22.1-22.1C87.2,18.3,87.2,16.7,86.2,15.7z"/>
<path class="st0" d="M19.4,82.6c1,1,2.5,1,3.5,0L45,60.5v15.3c0,1.4,1.1,2.5,2.5,2.5s2.5-1.1,2.5-2.5V54.5c0-0.3-0.1-0.6-0.2-0.9
	l0,0c-0.3-0.6-0.7-1.1-1.3-1.3l0,0c-0.3-0.1-0.6-0.2-0.9-0.2H26.2c-1.4,0-2.5,1.1-2.5,2.5s1.1,2.5,2.5,2.5h15.3l-22.1,22
	C18.4,80,18.4,81.6,19.4,82.6z"/>
</svg>
