<?xml version="1.0" encoding="utf-8"?>
<!-- Generator: Adobe Illustrator 21.0.1, SVG Export Plug-In . SVG Version: 6.00 Build 0)  -->
<svg version="1.1" id="Layer_1" xmlns="http://www.w3.org/2000/svg" xmlns:xlink="http://www.w3.org/1999/xlink" x="0px" y="0px"
	 viewBox="0 0 100 100" style="enable-background:new 0 0 100 100;" xml:space="preserve">
<style type="text/css">
	.st0{fill:#005AA9;}
</style>
<g>
	<path class="st0" d="M66.6,26c-0.7-0.8-2.1-1.8-4.3-1.8h-19l0,0H28.1c-3.7,0-6.8,3-6.8,6.8v33l17.5,22.5h22.4c3.7,0,6.8-3,6.8-6.8
		V63.4l0,0V31.3C68.1,30.6,68.3,27.9,66.6,26z M37.4,79.4l-9.7-14.1h9.7V79.4z M64.3,79.8c0,1.6-1.3,2.9-2.9,2.9H41.2V61.5h-16V30.9
		c0-1.6,1.3-2.9,2.9-2.9h13.7l0,0h20.4c1,0,1.4,0.4,1.5,0.5c0.6,0.7,0.6,2,0.5,2.5v44.2l0,0v4.6H64.3z"/>
	<path class="st0" d="M80.6,20.1c0.1-0.7,0.2-3.4-1.4-5.3C78.5,14,77.1,13,74.9,13h-19l0,0H40.7C37,13,34,16,34,19.8v1.5h3.8v-1.5
		c0-1.6,1.3-2.9,2.9-2.9h13.7l0,0h20.4c1,0,1.4,0.4,1.5,0.5c0.6,0.7,0.6,2,0.5,2.5v44.2l0,0v4.7c0,1.6-1.3,2.9-2.9,2.9h-3.1v3.8h3.1
		c3.7,0,6.8-3,6.8-6.8V52.2l0,0V20.1H80.6z"/>
</g>
</svg>
