<?xml version="1.0" encoding="utf-8"?>
<!-- Generator: Adobe Illustrator 21.0.1, SVG Export Plug-In . SVG Version: 6.00 Build 0)  -->
<svg version="1.1" id="Layer_1" xmlns="http://www.w3.org/2000/svg" xmlns:xlink="http://www.w3.org/1999/xlink" x="0px" y="0px"
	 viewBox="0 0 100 100" style="enable-background:new 0 0 100 100;" xml:space="preserve">
<style type="text/css">
	.st0{fill:#005AA9;}
</style>
<path class="st0" d="M80,17c0,0-8.9,1.6-12.8,4.1C63.5,23.5,55.7,37,52.3,40.5c-0.6,0.1-1,0.2-1.1,0.2c-1.2,0.3-6.4,2.5-8.1,4.1
	c0-0.4-0.1-0.9-0.2-1.3c-1.3-5.7-9.1-8.9-17.5-7C17,38.3,9.1,45,10.3,50.7c1.3,5.7,11,7.3,19.4,5.5c4.6-1,8.3-2.7,10.8-5.5
	c2-2.2,5.4-3.3,8.2-3.2c-1.3,2.6-4,5.1-7,5.7c-3.7,0.7-7.1,3.1-10.3,6.5C25.5,66,22,75.2,26.2,79.2c4.3,4,14,0.5,19.9-5.8
	s7.1-14.6,2.8-18.6c-0.3-0.3-0.7-0.6-1.1-0.8c2.2-0.6,6.8-4,7.6-4.9c0.1-0.1,0.4-0.4,0.9-0.9c3.7-0.9,19.9-3.5,23.9-5.5
	c4.2-2.1,10-9,10-9s-18.4,4.5-32.7,7.8C71,27.2,80,17,80,17z M38,44.6c0.8,3.9-3.4,6.5-9.1,7.8c-5.7,1.2-13.1,1.1-13.9-2.7
	c-0.8-3.9,5.5-8.5,11.2-9.8C31.8,38.6,37.1,40.7,38,44.6z M43.5,70.8c-3.8,4-10.6,7-13.4,4.4c-2.7-2.6,0.7-8.7,4.5-12.7
	s8-6.2,10.7-3.7C48.1,61.5,47.3,66.8,43.5,70.8z"/>
</svg>
