<?xml version="1.0" encoding="utf-8"?>
<!-- Generator: Adobe Illustrator 21.0.1, SVG Export Plug-In . SVG Version: 6.00 Build 0)  -->
<svg version="1.1" id="Layer_1" xmlns="http://www.w3.org/2000/svg" xmlns:xlink="http://www.w3.org/1999/xlink" x="0px" y="0px"
	 viewBox="0 0 100 100" style="enable-background:new 0 0 100 100;" xml:space="preserve">
<style type="text/css">
	.st0{fill:#005AA9;}
</style>
<path class="st0" d="M51.9,50.1c-0.9-0.9-2.4-0.9-3.3,0L27.7,71V56.5c0-1.3-1-2.3-2.3-2.3c-1.3,0-2.3,1-2.3,2.3v20.1
	c0,0.3,0.1,0.6,0.2,0.9c0,0,0,0,0,0c0.2,0.6,0.7,1,1.3,1.3c0,0,0,0,0,0c0.3,0.1,0.6,0.2,0.9,0.2h20.1c1.3,0,2.3-1,2.3-2.3
	c0-1.3-1-2.3-2.3-2.3H31l20.9-20.9C52.8,52.5,52.8,51,51.9,50.1z"/>
<path class="st0" d="M55.2,46.9c0.9,0.9,2.4,0.9,3.3,0L79.4,26v14.5c0,1.3,1,2.3,2.3,2.3c1.3,0,2.3-1,2.3-2.3V20.3
	c0-0.3-0.1-0.6-0.2-0.9c0,0,0,0,0,0c-0.2-0.6-0.7-1-1.3-1.3c0,0,0,0,0,0C82.3,18.1,82,18,81.7,18H61.6c-1.3,0-2.3,1-2.3,2.3
	c0,1.3,1,2.3,2.3,2.3H76L55.2,43.6C54.3,44.5,54.3,45.9,55.2,46.9z"/>
</svg>
