<?xml version="1.0" encoding="utf-8"?>
<!-- Generator: Adobe Illustrator 21.0.1, SVG Export Plug-In . SVG Version: 6.00 Build 0)  -->
<svg version="1.1" id="Layer_1_copy" xmlns="http://www.w3.org/2000/svg" xmlns:xlink="http://www.w3.org/1999/xlink" x="0px"
	 y="0px" viewBox="0 0 100 100" style="enable-background:new 0 0 100 100;" xml:space="preserve">
<style type="text/css">
	.st0{fill:#005AA9;}
</style>
<path class="st0" d="M76.3,25.7c0-1.5-1.4-2.8-3.1-2.8H57.8v-2.2c0-2.6-2.3-4.7-5.2-4.7H46c-2.9,0-5.2,2.1-5.2,4.7v2.2H25.4
	c-1.7,0-3.1,1.2-3.1,2.8V30l6.1,0.1v48.5c0.2,2.5,3.1,4.5,5.9,4.5H66c2.8,0,5.2-2,5.4-4.5V30h4.8L76.3,25.7z M54.4,22.9H44v-2.2
	c0-0.9,0.8-1.7,1.9-1.7h6.6c1,0,1.9,0.8,1.9,1.7V22.9z M51.9,71.4c0,1-0.9,1.9-2.1,1.9c-1.2,0-2.1-0.8-2.1-1.9V43
	c0-1,0.9-1.9,2.1-1.9c1.2,0,2.1,0.8,2.1,1.9V71.4z M40.9,71.4c0,1-0.9,1.9-2.1,1.9c-1.2,0-2.1-0.8-2.1-1.9V43c0-1,0.9-1.9,2.1-1.9
	c1.2,0,2.1,0.8,2.1,1.9V71.4z M62.9,71.4c0,1-0.9,1.9-2.1,1.9c-1.2,0-2.1-0.8-2.1-1.9V43c0-1,0.9-1.9,2.1-1.9c1.2,0,2.1,0.8,2.1,1.9
	V71.4z"/>
</svg>
