<?xml version="1.0" encoding="utf-8"?>
<!-- Generator: Adobe Illustrator 21.0.1, SVG Export Plug-In . SVG Version: 6.00 Build 0)  -->
<svg version="1.1" id="Layer_1" xmlns="http://www.w3.org/2000/svg" xmlns:xlink="http://www.w3.org/1999/xlink" x="0px" y="0px"
	 viewBox="0 0 100 100" style="enable-background:new 0 0 100 100;" xml:space="preserve">
<style type="text/css">
	.st0{fill:#005AA9;}
</style>
<g>
	<path class="st0" d="M77.8,24.7c-0.6-0.5-1.4-0.4-1.9,0.1L50.6,53.2c-0.5,0.6-0.4,1.4,0.1,1.9l6.8,6.1c0.6,0.5,1.4,0.4,1.9-0.1
		l25.3-28.4c0.5-0.6,0.4-1.4-0.1-1.9L77.8,24.7z"/>
	<path class="st0" d="M90.1,20.5L87.4,18c-1.7-1.5-4.3-1.4-5.8,0.3l-2.6,3c-0.4,0.4-0.3,1.1,0.1,1.4l7.3,6.5
		c0.4,0.4,1.1,0.3,1.4-0.1l2.6-2.9C92,24.6,91.8,22,90.1,20.5z"/>
	<polygon class="st0" points="44.4,69.3 56.4,63 49.2,56.5 	"/>
	<path class="st0" d="M63.7,75.5c0,1.6-1.3,2.9-2.9,2.9h-20V57.2h-16V26.7c0-1.6,1.3-2.9,2.9-2.9h13.7l0,0h20.4c1,0,1.3,0.4,1.5,0.5
		c0.6,0.7,0.6,2,0.5,2.4v5.1l3.8-4.6v-0.1c0.1-0.7,0.2-3.4-1.4-5.3c-0.7-0.8-2-1.8-4.3-1.8H42.8l0,0H27.6c-3.7,0-6.7,3-6.7,6.7v33
		l17.5,22.4h22.4c3.7,0,6.7-3,6.7-6.7V59.1l-3.8,4.2V75.5z M36.9,75.1l-9.7-14h9.7V75.1z"/>
</g>
</svg>
